:SAMPLES-PER-SECOND 30
:FULLY-SPECIFIED
:DEGREES
331
root  -4.21158 35.1533 -17.8397 1.87219 -29.2319 -7.4991
RightUpLeg  -37.3356 -4.65188 6.284
RightLeg  39.8938 1.20286 0.77936
RightFoot  -5.2798 -0.512127 8.91688
RightToes  -5.82094e-011 -1.98785e-016 -5.10186e-018
Spine  21.3218 -10.4026 -21.6616
Spine1  -0.135076 -22.8776 41.7197
HEad  -30.9384 46.0526 -36.5701
LeftShoulder1  2.05001 -12.0157 -5.39598
LeftArm  -24.9622 -36.8368 -45.1559
LeftForeArm  72.7997 -44.8135 -6.62157
LeftHand  -0.427723 -3.61756 5.72588
RightShoulder  0.17665 -2.79225 18.99
RightArm  -27.5843 -31.6505 13.4285
RightForeArm  -8.70928 6.45325 8.66646
RightHand  -1.47136 4.68451 -17.1366
LeftUpLeg  18.3715 16.8855 5.77789
LeftLeg  46.8343 14.0361 16.0205
LeftFoot  -3.10328 0.969698 -14.7306
LeftToes  -8.4584e-011 5.90861e-011 8.40072e-012
332
root  -4.34784 34.7428 -16.1088 3.8624 -30.611 -11.1977
RightUpLeg  -37.0244 -5.90349 8.77581
RightLeg  44.1644 2.51373 2.31266
RightFoot  -8.92462 -0.233625 8.45393
RightToes  -5.82094e-011 -1.98785e-016 -5.10186e-018
Spine  23.0195 -9.87375 -14.7989
Spine1  -1.06994 -20.4276 39.6865
HEad  -32.9307 44.6815 -38.2177
LeftShoulder1  2.60558 -11.9384 -9.49655
LeftArm  -23.0667 -33.0105 -45.341
LeftForeArm  70.8765 -41.3245 -5.70993
LeftHand  -0.388039 -2.57301 5.94271
RightShoulder  0.756178 -0.696733 20.6824
RightArm  -28.3625 -24.5713 13.4549
RightForeArm  -5.47127 6.09457 8.72085
RightHand  -1.3893 5.22102 -15.4109
LeftUpLeg  9.24454 16.7745 6.84708
LeftLeg  61.9404 10.6648 20.7235
LeftFoot  3.17105 0.913483 -6.68082
LeftToes  -8.4584e-011 5.90861e-011 8.40072e-012
333
root  -4.54618 34.5181 -14.2204 4.86871 -31.4262 -13.2457
RightUpLeg  -35.6105 -7.41943 9.12637
RightLeg  47.8966 3.78398 4.13711
RightFoot  -13.2142 0.0506713 8.8895
RightToes  -5.82094e-011 -1.98785e-016 -5.10186e-018
Spine  24.1028 -8.50605 -10.2141
Spine1  -1.7805 -17.7729 38.2601
HEad  -33.4227 42.3851 -37.8409
LeftShoulder1  3.09156 -11.8262 -13.1679
LeftArm  -21.033 -28.6414 -45.8936
LeftForeArm  67.5737 -36.8478 -4.69399
LeftHand  -0.336363 0.794491 8.67094
RightShoulder  1.61407 2.12191 22.4971
RightArm  -28.3874 -16.3026 12.9556
RightForeArm  -4.27066 5.64622 9.04646
RightHand  -1.44869 4.96493 -16.4112
LeftUpLeg  -0.912322 15.3664 5.87469
LeftLeg  72.9036 4.75486 18.3831
LeftFoot  -8.22353 0.171173 -4.43038
LeftToes  -8.4584e-011 5.90861e-011 8.40072e-012
334
root  -4.73422 34.2715 -12.4013 4.9711 -31.4967 -14.5693
RightUpLeg  -33.4747 -9.1869 8.48976
RightLeg  51.1047 4.51958 5.62999
RightFoot  -17.237 0.323661 8.47899
RightToes  -5.82094e-011 -1.98785e-016 -5.10186e-018
Spine  25.4618 -7.4052 -5.77263
Spine1  -2.53922 -15.0988 35.7723
HEad  -33.1234 40.1586 -36.1903
LeftShoulder1  3.28888 -11.1336 -15.6878
LeftArm  -18.0797 -23.6511 -47.0377
LeftForeArm  62.8174 -31.5476 -3.65461
LeftHand  -0.128633 4.28685 11.5448
RightShoulder  2.68991 5.50784 23.719
RightArm  -29.4576 -7.74863 13.2477
RightForeArm  -1.84264 4.50929 8.94717
RightHand  -1.66672 5.67749 -17.6562
LeftUpLeg  -11.5852 13.5887 5.4323
LeftLeg  81.4628 2.21855 20.817
LeftFoot  -13.8252 0.0302499 -1.8252
LeftToes  -8.4584e-011 5.90861e-011 8.40072e-012
335
root  -4.95827 34.0284 -10.5398 3.81235 -31.5575 -15.6812
RightUpLeg  -29.5214 -10.6407 7.1029
RightLeg  53.7413 5.36839 7.42894
RightFoot  -20.9412 0.608878 8.93322
RightToes  -5.82094e-011 -1.98785e-016 -5.10186e-018
Spine  26.9169 -6.4394 -0.316395
Spine1  -3.15708 -11.7387 30.844
HEad  -31.28 37.1057 -32.9911
LeftShoulder1  3.44311 -10.3734 -18.2324
LeftArm  -15.1524 -17.9561 -47.7735
LeftForeArm  56.4673 -26.635 -2.86399
LeftHand  0.0920613 6.57216 11.2954
RightShoulder  3.54296 8.15557 24.2783
RightArm  -31.5684 1.34203 14.1327
RightForeArm  -0.197034 2.91369 8.57133
RightHand  -1.79337 6.19913 -18.1417
LeftUpLeg  -20.659 12.7914 6.27305
LeftLeg  86.0544 0.570402 22.5466
LeftFoot  -17.1762 0.0123597 -1.77167
LeftToes  -8.4584e-011 5.90861e-011 8.40072e-012
336
root  -5.21796 33.7626 -8.58471 2.12972 -31.8718 -15.9794
RightUpLeg  -24.9676 -11.5075 4.68244
RightLeg  55.9012 5.90011 8.88494
RightFoot  -24.25 0.836421 8.8716
RightToes  -5.82094e-011 -1.98785e-016 -5.10186e-018
Spine  27.5538 -5.68097 5.0836
Spine1  -3.66985 -8.27655 24.4194
HEad  -28.4882 34.4135 -29.2787
LeftShoulder1  3.46076 -9.24227 -20.771
LeftArm  -14.3909 -10.473 -47.4525
LeftForeArm  51.8719 -23.085 -2.41544
LeftHand  0.128539 7.38985 9.22651
RightShoulder  4.22592 10.4703 24.0849
RightArm  -35.1479 11.0925 15.0174
RightForeArm  2.22585 1.36052 7.74838
RightHand  -1.94198 6.82006 -18.6152
LeftUpLeg  -28.9115 12.6237 6.65981
LeftLeg  86.629 0.271315 21.364
LeftFoot  -18.3949 -0.0311908 -2.26538
LeftToes  -8.4584e-011 5.90861e-011 8.40072e-012
337
root  -5.56093 33.5187 -6.55908 0.646194 -32.2659 -15.6634
RightUpLeg  -20.4589 -11.7861 1.74665
RightLeg  57.4213 6.29721 10.083
RightFoot  -27.4455 1.0841 8.91214
RightToes  -5.82094e-011 -1.98785e-016 -5.10186e-018
Spine  27.2696 -4.80822 9.84144
Spine1  -3.9439 -4.92765 17.4803
HEad  -25.8574 31.0336 -25.4502
LeftShoulder1  3.10921 -7.08644 -23.1061
LeftArm  -15.2178 -1.83634 -45.1967
LeftForeArm  48.0813 -21.2317 -2.4873
LeftHand  0.105668 7.84096 6.4615
RightShoulder  4.80713 12.4527 23.9521
RightArm  -40.2194 21.7347 16.231
RightForeArm  4.52397 0.977507 6.69986
RightHand  -2.44632 7.72729 -21.6715
LeftUpLeg  -36.5257 13.3497 6.84156
LeftLeg  83.5963 1.35862 20.3844
LeftFoot  -18.9567 -0.123038 -3.56092
LeftToes  -8.4584e-011 5.90861e-011 8.40072e-012
338
root  -5.92808 33.373 -4.47414 -1.2399 -33.4117 -14.8156
RightUpLeg  -15.0381 -10.8404 -1.8537
RightLeg  57.7264 7.33107 11.8972
RightFoot  -30.8032 1.60453 10.5887
RightToes  -5.82094e-011 -1.98785e-016 -5.10186e-018
Spine  28.1818 -3.67414 14.4854
Spine1  -5.28108 -0.982685 9.3318
HEad  -23.2317 27.1511 -21.3603
LeftShoulder1  2.3485 -4.13498 -24.572
LeftArm  -16.3326 8.29167 -41.3188
LeftForeArm  43.0633 -21.062 -2.72777
LeftHand  0.161268 8.23441 7.96671
RightShoulder  5.19045 13.9943 23.4438
RightArm  -43.418 32.0167 18.7955
RightForeArm  9.46082 3.8891 6.65685
RightHand  -3.06946 8.63613 -25.3674
LeftUpLeg  -41.99 15.6982 6.98979
LeftLeg  77.0084 3.6795 19.2799
LeftFoot  -18.4749 -0.0647666 -2.81619
LeftToes  -8.4584e-011 5.90861e-011 8.40072e-012
339
root  -6.34347 33.3642 -2.20086 -2.66304 -33.6611 -13.7954
RightUpLeg  -8.93079 -9.86105 -5.58092
RightLeg  55.9852 8.43988 12.7896
RightFoot  -33.8061 1.99796 11.1718
RightToes  -5.82094e-011 -1.98785e-016 -5.10186e-018
Spine  28.4657 -2.49887 19.3586
Spine1  -6.80759 2.93376 0.321231
HEad  -20.5048 21.8564 -16.6981
LeftShoulder1  1.52926 -1.39535 -24.9232
LeftArm  -18.0428 18.8342 -36.1348
LeftForeArm  37.179 -21.7934 -2.93586
LeftHand  0.363598 9.40597 11.2901
RightShoulder  5.25771 14.8082 22.4246
RightArm  -41.0099 41.5952 23.1917
RightForeArm  18.312 9.47771 6.76741
RightHand  -3.32234 9.59162 -25.6536
LeftUpLeg  -45.8519 17.8819 6.53392
LeftLeg  67.2433 6.90284 18.3908
LeftFoot  -18.1754 -0.0644964 -2.92096
LeftToes  -8.4584e-011 5.90861e-011 8.40072e-012
340
root  -6.85695 33.4922 0.408448 -3.93748 -31.3049 -13.4844
RightUpLeg  -0.107137 -11.0772 -9.16431
RightLeg  51.2449 10.2651 13.1055
RightFoot  -35.3322 2.63633 13.4833
RightToes  -5.82094e-011 -1.98785e-016 -5.10186e-018
Spine  27.4161 -0.924258 23.615
Spine1  -7.90211 6.32432 -7.29246
HEad  -17.3332 14.5518 -11.1705
LeftShoulder1  0.933476 0.289027 -22.6292
LeftArm  -23.3376 29.4229 -31.2697
LeftForeArm  32.3747 -23.4516 -3.33572
LeftHand  0.756571 12.1688 13.4351
RightShoulder  5.00073 15.2346 20.2629
RightArm  -26.4142 48.9273 30.3437
RightForeArm  16.6162 16.7274 5.3381
RightHand  -3.43992 10.0823 -25.7255
LeftUpLeg  -46.9928 18.2979 6.01669
LeftLeg  53.9359 8.7922 13.3419
LeftFoot  -16.9608 -0.0748179 -3.58567
LeftToes  -8.4584e-011 5.90861e-011 8.40072e-012
341
root  -7.3914 33.7517 3.36768 -5.76114 -26.9398 -14.0849
RightUpLeg  11.9694 -13.3717 -12.5924
RightLeg  43.5363 12.0151 11.6915
RightFoot  -33.0784 2.97516 16.5994
RightToes  -5.82094e-011 -1.98785e-016 -5.10186e-018
Spine  27.1051 1.48955 26.541
Spine1  -10.2245 9.61992 -12.676
HEad  -13.0706 5.25995 -4.85709
LeftShoulder1  0.544712 1.35199 -18.9614
LeftArm  -26.4902 38.7488 -25.5383
LeftForeArm  29.8159 -26.5032 -4.09899
LeftHand  1.34296 15.236 16.0278
RightShoulder  4.44678 15.6519 16.4945
RightArm  -16.0761 51.6097 38.8098
RightForeArm  17.1599 23.4727 3.98253
RightHand  -3.17063 10.2266 -23.5705
LeftUpLeg  -44.4724 18.2458 5.13831
LeftLeg  37.5382 8.57631 7.4981
LeftFoot  -15.988 -0.0496721 -3.5812
LeftToes  -8.4584e-011 5.90861e-011 8.40072e-012
342
root  -7.88626 34.0704 6.59357 -7.78504 -21.9293 -14.9809
RightUpLeg  24.6929 -15.3625 -16.8115
RightLeg  35.7196 14.7526 10.8672
RightFoot  -23.8471 2.12824 20.8698
RightToes  -5.82094e-011 -1.98785e-016 -5.10186e-018
Spine  26.5186 5.07276 29.0405
Spine1  -12.0049 13.8123 -18.8052
HEad  -8.55 -7.3184 2.87607
LeftShoulder1  0.556469 0.654314 -12.6799
LeftArm  -24.5922 44.9704 -19.8875
LeftForeArm  27.6398 -29.9199 -4.98335
LeftHand  1.70386 17.095 16.9859
RightShoulder  3.83113 15.979 12.601
RightArm  -14.9247 48.3233 42.489
RightForeArm  23.0529 32.504 5.88157
RightHand  -2.68945 9.65018 -20.8512
LeftUpLeg  -39.1987 18.7287 3.96638
LeftLeg  20.7362 10.5473 4.14238
LeftFoot  -15.7448 -0.0438913 -3.59243
LeftToes  -8.4584e-011 5.90861e-011 8.40072e-012
343
root  -8.19207 34.2148 9.98189 -9.24365 -16.4824 -16.6504
RightUpLeg  34.4293 -17.8332 -21.2315
RightLeg  31.6616 17.561 11.1729
RightFoot  -6.44701 -1.34968 26.4031
RightToes  -5.82094e-011 -1.98785e-016 -5.10186e-018
Spine  24.2978 8.65534 31.3219
Spine1  -10.7105 17.7988 -23.9893
HEad  -7.01596 -19.0343 10.5955
LeftShoulder1  0.538205 -0.205605 -6.70926
LeftArm  -18.8212 48.6893 -14.7752
LeftForeArm  29.0904 -33.9386 -5.87223
LeftHand  1.03708 14.5775 13.5141
RightShoulder  3.67743 16.1094 11.5831
RightArm  -13.89 44.3976 40.058
RightForeArm  30.7431 43.4357 8.50873
RightHand  -2.38675 10.0565 -18.2173
LeftUpLeg  -33.3905 15.0519 5.92113
LeftLeg  9.8071 20.8246 3.32986
LeftFoot  -15.7663 -0.0264464 -3.22567
LeftToes  -8.4584e-011 5.90861e-011 8.40072e-012
344
root  -8.32734 33.906 13.0983 -9.17181 -11.9312 -18.9837
RightUpLeg  34.2431 -16.7436 -20.2961
RightLeg  36.8252 16.4208 12.6523
RightFoot  13.4858 -6.24489 29.346
RightToes  -5.82094e-011 -1.98785e-016 -5.10186e-018
Spine  21.6477 11.9311 31.737
Spine1  -8.15409 20.563 -25.4474
HEad  -8.89898 -26.6996 15.5286
LeftShoulder1  0.430628 0.0994368 -4.71318
LeftArm  -11.7323 51.8159 -10.3514
LeftForeArm  31.3056 -36.6467 -6.44148
LeftHand  0.597037 12.2303 10.6875
RightShoulder  3.48113 14.8492 11.838
RightArm  -11.4128 42.3111 39.0797
RightForeArm  39.7483 53.2657 11.786
RightHand  -2.61097 12.7652 -16.9448
LeftUpLeg  -32.44 11.1643 8.13677
LeftLeg  11.5949 28.6957 6.02333
LeftFoot  -15.9645 0.102662 -1.12495
LeftToes  -8.4584e-011 5.90861e-011 8.40072e-012
345
root  -8.35437 33.184 15.7144 -10.6778 -7.81228 -20.1344
RightUpLeg  29.5275 -14.7069 -20.2833
RightLeg  48.2421 12.7284 14.3341
RightFoot  24.6201 -6.36207 19.704
RightToes  -5.82094e-011 -1.98785e-016 -5.10186e-018
Spine  21.0059 13.6486 28.4452
Spine1  -5.52337 21.0461 -22.99
HEad  -12.5504 -29.7099 18.6608
LeftShoulder1  0.270036 1.48845 -5.89109
LeftArm  -14.5171 54.0446 -12.949
LeftForeArm  32.8179 -36.0173 -6.19474
LeftHand  0.324047 11.0063 7.7197
RightShoulder  3.54068 14.1373 13.044
RightArm  -9.68886 37.1297 39.2555
RightForeArm  44.2042 63.1265 18.1688
RightHand  -2.28951 11.9234 -15.5032
LeftUpLeg  -34.3921 14.4758 5.29137
LeftLeg  21.2994 24.9793 10.5634
LeftFoot  -10.6801 -0.206759 1.37193
LeftToes  -8.4584e-011 5.90861e-011 8.40072e-012
